PathFileType	4	(X/Y/Z)	G:\Shared drives\HIT\Data\HapticPilot\Subject1\Edited\RHJC1.trc
DataRate	CameraRate	NumFrames	NumMarkers	Units	OrigDataRate	OrigDataStartFrame	OrigNumFrames
50.00	50.00	       5	38	mm	50.00	143	       571
Frame#	Time	r_knee			r_shank(antsup)			r_ankle			r_calc			r_5meta			r_toe			L_knee			L_shank(ant_sup)			L_ankle			L_calc			L_5meta			L_toe			r_mknee			r_mankle			L_mknee			L_mankle			r_sh2			r_sh3			r_sh4			L_sh2			L_sh3			r_thigh1			r_thigh2			r_thigh3			r_thigh4			r_thigh5			L_thigh1			L_thigh2			L_thigh3			L_thigh4			r.ASIS			r.PSIS			L.ASIS			L.PSIS			C7			R_Shoulder			L_Shoulder			Sternum			
		X1	Y1	Z1	X2	Y2	Z2	X3	Y3	Z3	X4	Y4	Z4	X5	Y5	Z5	X6	Y6	Z6	X7	Y7	Z7	X8	Y8	Z8	X9	Y9	Z9	X10	Y10	Z10	X11	Y11	Z11	X12	Y12	Z12	X13	Y13	Z13	X14	Y14	Z14	X15	Y15	Z15	X16	Y16	Z16	X17	Y17	Z17	X18	Y18	Z18	X19	Y19	Z19	X20	Y20	Z20	X21	Y21	Z21	X22	Y22	Z22	X23	Y23	Z23	X24	Y24	Z24	X25	Y25	Z25	X26	Y26	Z26	X27	Y27	Z27	X28	Y28	Z28	X29	Y29	Z29	X30	Y30	Z30	X31	Y31	Z31	X32	Y32	Z32	X33	Y33	Z33	X34	Y34	Z34	X35	Y35	Z35	X36	Y36	Z36	X37	Y37	Z37	X38	Y38	Z38	

143	2.840	1022.14972	367.24326	887.25122	1087.90247	316.35065	851.13245	1272.46057	79.71674	607.98584	1235.93372	65.82042	505.28491	1400.49658	43.39252	638.78784	1420.92444	122.09780	644.24219	759.98993	859.74969	564.47015	792.29846	846.38440	446.23605	698.94061	807.57831	110.76462	621.98206	753.92407	73.36987	814.31348	849.50006	41.57714	861.88562	793.66803	68.77104	1059.07751	456.06311	799.62903	1294.05920	159.79727	559.71893	788.04376	736.38727	566.96045	729.17889	717.64349	121.84528	1154.36853	242.49220	784.21356	1026.68005	292.14227	814.64807	1083.94653	215.75720	747.16357	704.80701	868.23505	465.42633	690.95789	854.22418	344.52493	856.66150	553.79291	1097.60889	933.09692	493.76248	1037.73389	919.33966	451.81409	1000.93671	774.11505	501.69626	1037.99854	859.89264	451.52731	970.82446	814.20270	912.56854	836.03595	831.19775	894.98352	700.14832	698.98096	914.61133	821.54645	719.86987	884.78387	691.35284	820.19128	664.52789	1171.37073	628.10315	737.33356	1147.21326	808.74335	907.91248	1091.67493	627.38440	814.72705	1125.89392	704.80060	831.14252	1627.65625	742.39581	667.76697	1604.20166	752.68347	1010.90375	1576.45435	834.56958	826.91760	1541.74512	
144	2.860	1023.53186	366.25113	892.45471	1089.60486	314.83179	857.42743	1274.58276	74.20592	618.31763	1238.22754	58.42800	515.95313	1402.96716	38.77385	650.14014	1423.97205	117.50027	653.98669	759.12195	859.77374	564.60083	791.81989	846.35370	446.37592	698.96564	807.47601	110.84269	622.04053	753.88232	73.44923	814.31268	849.49207	41.66655	861.92798	793.64276	68.80257	1059.96985	452.99533	803.36145	1296.16785	153.58009	568.72083	787.71106	736.44183	567.07721	729.23401	717.62866	121.84097	1155.95056	239.42697	792.47803	1028.47583	289.05960	821.44189	1085.90088	211.95963	755.57538	704.22705	868.18549	465.52090	690.43573	853.91309	344.54395	857.75812	554.72412	1099.88843	934.11023	494.00119	1040.78381	920.39142	451.50760	1004.52100	775.60443	501.00781	1041.24036	861.03784	450.98438	974.32568	812.90570	913.39948	835.83008	829.76880	895.62769	699.93799	697.16815	913.54260	822.11353	718.42926	884.83624	691.40399	821.62744	665.67407	1172.04541	628.64136	737.68616	1148.32849	807.72577	908.96393	1091.45105	627.35498	814.92010	1126.76538	706.31854	830.66425	1628.33545	744.74689	667.44824	1604.42444	752.85364	1010.71997	1577.07434	835.62421	827.20038	1541.92554	
145	2.880	1024.59387	365.25574	896.21960	1090.73816	313.49564	861.94781	1275.75195	70.09444	625.83514	1239.03333	52.14914	523.83704	1404.04358	35.10552	658.09723	1424.88208	113.98373	660.68750	758.90308	859.70941	564.51044	791.70459	846.32428	446.48538	699.10889	807.33356	111.02978	622.11078	753.77667	73.53360	814.37128	849.46460	41.72257	861.99591	793.58472	68.74876	1060.63220	450.73117	805.88507	1297.15991	148.77948	575.10986	788.04523	736.55377	567.12598	729.33954	717.56995	121.89847	1157.12610	237.54137	797.88220	1029.66040	286.90973	826.61273	1087.00183	209.30934	761.60651	703.95044	868.00427	465.52695	690.18976	853.79956	344.44824	858.16357	555.41852	1101.39246	934.90045	494.11493	1043.02393	921.01776	451.26123	1007.10297	776.24707	501.30612	1043.17310	861.69238	450.71890	976.72070	812.34973	913.87860	835.72424	829.27850	895.97369	699.76501	696.52881	913.54932	821.98395	717.65845	884.80096	691.18903	822.44019	666.51013	1172.27844	629.34338	737.93237	1149.17346	807.34924	909.72858	1091.27368	627.54681	814.99976	1127.34094	706.82660	830.50500	1629.51709	746.94611	667.35785	1604.61011	753.35840	1010.69720	1577.53137	836.81091	827.50629	1542.04175	
146	2.900	1025.04443	364.61411	898.64404	1091.28577	312.69272	864.56671	1275.57605	67.09626	630.19513	1238.46558	48.20764	528.48981	1403.67969	32.24993	662.64282	1424.74158	111.17944	664.49054	758.93341	859.68188	564.43079	791.67377	846.30829	446.52539	699.21198	807.26056	111.06569	622.13397	753.73792	73.62705	814.36237	849.43256	41.68453	862.07361	793.56848	68.68871	1061.07068	449.38950	807.52185	1296.67065	145.07919	578.62445	788.39478	736.71979	567.18091	729.45813	717.48047	121.84029	1157.63867	236.12970	801.15094	1030.07703	285.39023	829.78131	1087.33691	207.42160	765.36194	703.97662	867.94330	465.52652	690.24231	853.74335	344.52274	858.67047	555.84515	1102.35095	935.14819	494.16406	1044.29248	921.40967	451.09512	1008.69739	776.58795	501.43820	1044.27405	862.08588	450.47345	978.32660	812.16522	914.27655	835.46082	829.15784	896.05450	699.50598	696.36523	913.41431	821.73938	717.44580	884.80084	691.05774	823.40155	666.85638	1172.42175	629.97235	738.04077	1149.74353	807.40430	910.15277	1091.07019	627.91272	815.19165	1127.79517	708.16827	830.46045	1629.74231	748.99475	667.34583	1604.71741	754.12701	1010.73053	1577.75244	837.99402	827.84509	1542.01978	
147	2.920	1024.93323	364.23593	899.36719	1091.14966	312.14404	865.21350	1274.24036	65.37713	631.25726	1237.09680	46.19900	529.60114	1402.59448	30.52419	663.42432	1423.69019	109.40401	664.93054	758.93719	859.65631	564.29022	791.87427	846.15942	446.57419	699.22540	807.30475	111.07743	622.16339	753.80927	73.65388	814.40076	849.44586	41.64783	862.09491	793.60413	68.66657	1060.95459	448.86099	807.78662	1295.64294	143.22536	579.39099	788.23517	736.57629	567.12939	729.41412	717.47894	121.88481	1157.23254	235.21718	801.99652	1029.89014	284.86053	830.83624	1086.75671	206.35995	766.66486	704.18268	868.09247	465.57062	690.66052	853.75854	344.68713	858.99817	555.94312	1102.55701	935.33411	494.16293	1044.53918	921.53717	450.89398	1009.14313	776.81171	501.52982	1044.70398	862.13025	450.41141	978.73224	812.47449	914.36145	835.06329	829.15845	895.97076	699.13220	696.93701	913.96204	821.09576	717.44470	884.75775	691.00989	824.08801	666.80920	1172.45203	630.35870	738.40656	1150.08533	808.16559	910.22089	1090.82410	628.55884	815.52466	1127.89294	709.36206	830.51569	1629.93188	750.69171	667.38550	1604.86475	755.08142	1010.88434	1577.76636	838.95569	828.20300	1541.87134	
